<svg xmlns="http://www.w3.org/2000/svg" xmlns:xlink="http://www.w3.org/1999/xlink" width="1920" zoomAndPan="magnify" viewBox="0 0 1440 809.999993" height="1080" preserveAspectRatio="xMidYMid meet" version="1.0"><defs><clipPath id="2896ce1369"><path d="M 1046 69 L 1380 69 L 1380 426 L 1046 426 Z M 1046 69 " clip-rule="nonzero"/></clipPath><clipPath id="29b8888236"><path d="M 1165.027344 35.878906 L 1412.589844 197.222656 L 1235.683594 468.664062 L 988.121094 307.320312 Z M 1165.027344 35.878906 " clip-rule="nonzero"/></clipPath><clipPath id="7792600aa1"><path d="M 1165.027344 35.878906 L 1412.589844 197.222656 L 1235.683594 468.664062 L 988.121094 307.320312 Z M 1165.027344 35.878906 " clip-rule="nonzero"/></clipPath><clipPath id="15c7d20703"><path d="M 1165.027344 35.878906 L 1412.589844 197.222656 L 1235.683594 468.664062 L 988.121094 307.320312 Z M 1165.027344 35.878906 " clip-rule="nonzero"/></clipPath><clipPath id="feccb4815e"><path d="M 1054 284 L 1175 284 L 1175 358 L 1054 358 Z M 1054 284 " clip-rule="nonzero"/></clipPath><clipPath id="1ad9bf1c2c"><path d="M 1165.027344 35.878906 L 1412.589844 197.222656 L 1235.683594 468.664062 L 988.121094 307.320312 Z M 1165.027344 35.878906 " clip-rule="nonzero"/></clipPath><clipPath id="a8f62b2d3f"><path d="M 1165.027344 35.878906 L 1412.589844 197.222656 L 1235.683594 468.664062 L 988.121094 307.320312 Z M 1165.027344 35.878906 " clip-rule="nonzero"/></clipPath><clipPath id="23d5420e15"><path d="M 1165.027344 35.878906 L 1412.589844 197.222656 L 1235.683594 468.664062 L 988.121094 307.320312 Z M 1165.027344 35.878906 " clip-rule="nonzero"/></clipPath><clipPath id="422c681442"><path d="M 1161 145 L 1380 145 L 1380 426 L 1161 426 Z M 1161 145 " clip-rule="nonzero"/></clipPath><clipPath id="4c9bc96b99"><path d="M 1165.027344 35.878906 L 1412.589844 197.222656 L 1235.683594 468.664062 L 988.121094 307.320312 Z M 1165.027344 35.878906 " clip-rule="nonzero"/></clipPath><clipPath id="1dfcf26c6f"><path d="M 1165.027344 35.878906 L 1412.589844 197.222656 L 1235.683594 468.664062 L 988.121094 307.320312 Z M 1165.027344 35.878906 " clip-rule="nonzero"/></clipPath><clipPath id="f9076f5d80"><path d="M 1165.027344 35.878906 L 1412.589844 197.222656 L 1235.683594 468.664062 L 988.121094 307.320312 Z M 1165.027344 35.878906 " clip-rule="nonzero"/></clipPath><clipPath id="c0b3f54e3e"><path d="M 1143 92 L 1221 92 L 1221 126 L 1143 126 Z M 1143 92 " clip-rule="nonzero"/></clipPath><clipPath id="2d1d41697a"><path d="M 1165.027344 35.878906 L 1412.589844 197.222656 L 1235.683594 468.664062 L 988.121094 307.320312 Z M 1165.027344 35.878906 " clip-rule="nonzero"/></clipPath><clipPath id="ce67b68810"><path d="M 1165.027344 35.878906 L 1412.589844 197.222656 L 1235.683594 468.664062 L 988.121094 307.320312 Z M 1165.027344 35.878906 " clip-rule="nonzero"/></clipPath><clipPath id="626cf67fd9"><path d="M 1165.027344 35.878906 L 1412.589844 197.222656 L 1235.683594 468.664062 L 988.121094 307.320312 Z M 1165.027344 35.878906 " clip-rule="nonzero"/></clipPath><clipPath id="466d65324e"><path d="M 1107 463 L 1323 463 L 1323 711 L 1107 711 Z M 1107 463 " clip-rule="nonzero"/></clipPath><clipPath id="f16dd4f507"><path d="M 1091.570312 511.214844 L 1290.410156 448.488281 L 1359.007812 665.921875 L 1160.167969 728.652344 Z M 1091.570312 511.214844 " clip-rule="nonzero"/></clipPath><clipPath id="f0dd25457d"><path d="M 1091.570312 511.214844 L 1290.410156 448.488281 L 1359.007812 665.921875 L 1160.167969 728.652344 Z M 1091.570312 511.214844 " clip-rule="nonzero"/></clipPath><clipPath id="9d49bbe9b0"><path d="M 1091.570312 511.214844 L 1290.410156 448.488281 L 1359.007812 665.921875 L 1160.167969 728.652344 Z M 1091.570312 511.214844 " clip-rule="nonzero"/></clipPath><clipPath id="d2d4f2330d"><path d="M 1211 620 L 1236 620 L 1236 711 L 1211 711 Z M 1211 620 " clip-rule="nonzero"/></clipPath><clipPath id="f518272c04"><path d="M 1091.570312 511.214844 L 1290.410156 448.488281 L 1359.007812 665.921875 L 1160.167969 728.652344 Z M 1091.570312 511.214844 " clip-rule="nonzero"/></clipPath><clipPath id="19492495b4"><path d="M 1091.570312 511.214844 L 1290.410156 448.488281 L 1359.007812 665.921875 L 1160.167969 728.652344 Z M 1091.570312 511.214844 " clip-rule="nonzero"/></clipPath><clipPath id="8078452b3d"><path d="M 1091.570312 511.214844 L 1290.410156 448.488281 L 1359.007812 665.921875 L 1160.167969 728.652344 Z M 1091.570312 511.214844 " clip-rule="nonzero"/></clipPath><clipPath id="02fbbdef6c"><path d="M 1226 463 L 1323 463 L 1323 685 L 1226 685 Z M 1226 463 " clip-rule="nonzero"/></clipPath><clipPath id="a9a4d725a7"><path d="M 1091.570312 511.214844 L 1290.410156 448.488281 L 1359.007812 665.921875 L 1160.167969 728.652344 Z M 1091.570312 511.214844 " clip-rule="nonzero"/></clipPath><clipPath id="25111f7815"><path d="M 1091.570312 511.214844 L 1290.410156 448.488281 L 1359.007812 665.921875 L 1160.167969 728.652344 Z M 1091.570312 511.214844 " clip-rule="nonzero"/></clipPath><clipPath id="832f41e24b"><path d="M 1091.570312 511.214844 L 1290.410156 448.488281 L 1359.007812 665.921875 L 1160.167969 728.652344 Z M 1091.570312 511.214844 " clip-rule="nonzero"/></clipPath><clipPath id="e0b9156ca0"><path d="M 1124 510 L 1156 510 L 1156 561 L 1124 561 Z M 1124 510 " clip-rule="nonzero"/></clipPath><clipPath id="63abaced2c"><path d="M 1091.570312 511.214844 L 1290.410156 448.488281 L 1359.007812 665.921875 L 1160.167969 728.652344 Z M 1091.570312 511.214844 " clip-rule="nonzero"/></clipPath><clipPath id="80ebec82de"><path d="M 1091.570312 511.214844 L 1290.410156 448.488281 L 1359.007812 665.921875 L 1160.167969 728.652344 Z M 1091.570312 511.214844 " clip-rule="nonzero"/></clipPath><clipPath id="da49e50518"><path d="M 1091.570312 511.214844 L 1290.410156 448.488281 L 1359.007812 665.921875 L 1160.167969 728.652344 Z M 1091.570312 511.214844 " clip-rule="nonzero"/></clipPath></defs><rect x="-144" width="1728" fill="#ffffff" y="-80.999999" height="971.999992" fill-opacity="1"/><rect x="-144" width="1728" fill="#ffffff" y="-80.999999" height="971.999992" fill-opacity="1"/><g clip-path="url(#2896ce1369)"><g clip-path="url(#29b8888236)"><g clip-path="url(#7792600aa1)"><g clip-path="url(#15c7d20703)"><path fill="#eff3f9" d="M 1163.898438 421.878906 C 1146.585938 410.59375 1156.421875 383.339844 1166.835938 354.484375 C 1175.492188 330.511719 1186.261719 300.683594 1174.324219 292.902344 C 1162.386719 285.121094 1139.453125 307.023438 1121.011719 324.617188 C 1098.8125 345.796875 1077.859375 365.804688 1060.539062 354.515625 C 1036.082031 338.578125 1044.425781 267.835938 1077.390625 211.707031 C 1092.046875 186.757812 1102.515625 160.9375 1108.511719 134.964844 C 1111.722656 121.035156 1118.269531 108.453125 1127.941406 97.535156 C 1152.636719 69.699219 1193.375 61.359375 1227.027344 77.261719 C 1230.632812 78.96875 1234.144531 80.925781 1237.445312 83.074219 C 1246.566406 89.019531 1254.332031 96.523438 1260.523438 105.382812 C 1266.425781 113.824219 1273.867188 120.992188 1282.632812 126.703125 C 1291.398438 132.417969 1300.960938 136.328125 1311.066406 138.320312 C 1321.667969 140.414062 1331.667969 144.484375 1340.789062 150.425781 C 1344.089844 152.578125 1347.296875 155 1350.316406 157.613281 C 1378.449219 181.976562 1387.269531 222.617188 1371.773438 256.449219 C 1365.699219 269.707031 1356.824219 280.773438 1345.378906 289.335938 C 1324.03125 305.3125 1304.636719 325.316406 1287.734375 348.792969 C 1249.6875 401.609375 1188.34375 437.808594 1163.886719 421.871094 Z M 1163.898438 421.878906 " fill-opacity="1" fill-rule="nonzero"/></g></g></g></g><g clip-path="url(#feccb4815e)"><g clip-path="url(#1ad9bf1c2c)"><g clip-path="url(#a8f62b2d3f)"><g clip-path="url(#23d5420e15)"><path fill="#cfe0f3" d="M 1096.496094 313.496094 C 1078.140625 332.242188 1066.410156 347.023438 1054.21875 347.9375 C 1056.03125 350.601562 1058.078125 352.914062 1060.554688 354.527344 C 1077.867188 365.808594 1098.828125 345.804688 1121.023438 324.625 C 1139.460938 307.027344 1162.402344 285.128906 1174.339844 292.910156 C 1148.5 276.070312 1124.019531 285.390625 1096.503906 313.5 Z M 1096.496094 313.496094 " fill-opacity="1" fill-rule="nonzero"/></g></g></g></g><g clip-path="url(#422c681442)"><g clip-path="url(#4c9bc96b99)"><g clip-path="url(#1dfcf26c6f)"><g clip-path="url(#f9076f5d80)"><path fill="#cfe0f3" d="M 1371.785156 256.457031 C 1387.28125 222.625 1378.460938 181.988281 1350.332031 157.621094 C 1347.3125 155.007812 1344.105469 152.585938 1340.804688 150.4375 C 1338.019531 148.621094 1335.121094 147.035156 1332.179688 145.578125 C 1350 169.511719 1355.144531 201.613281 1344.175781 230.359375 C 1338.703125 244.703125 1330.132812 256.933594 1318.707031 266.714844 C 1297.378906 284.949219 1278.375 307.289062 1262.226562 333.109375 C 1234.492188 377.433594 1191.878906 412.425781 1161.328125 419.863281 C 1162.117188 420.570312 1162.953125 421.261719 1163.90625 421.882812 C 1188.359375 437.820312 1249.710938 401.628906 1287.753906 348.804688 C 1304.660156 325.320312 1324.054688 305.320312 1345.398438 289.347656 C 1356.84375 280.785156 1365.710938 269.714844 1371.792969 256.460938 Z M 1371.785156 256.457031 " fill-opacity="1" fill-rule="nonzero"/></g></g></g></g><g clip-path="url(#c0b3f54e3e)"><g clip-path="url(#2d1d41697a)"><g clip-path="url(#ce67b68810)"><g clip-path="url(#626cf67fd9)"><path fill="#ffffff" d="M 1147.5 123.761719 C 1147.125 123.519531 1146.769531 123.242188 1146.429688 122.929688 C 1143.320312 120.019531 1143.164062 115.136719 1146.074219 112.023438 C 1154.773438 102.730469 1165.949219 96.425781 1178.40625 93.796875 C 1190.859375 91.164062 1203.628906 92.417969 1215.332031 97.402344 C 1219.269531 99.089844 1221.070312 103.609375 1219.40625 107.523438 C 1217.734375 111.445312 1213.207031 113.261719 1209.285156 111.601562 C 1200.503906 107.855469 1190.925781 106.917969 1181.589844 108.890625 C 1172.25 110.863281 1163.867188 115.589844 1157.34375 122.566406 C 1154.753906 125.339844 1150.589844 125.769531 1147.507812 123.761719 Z M 1147.5 123.761719 " fill-opacity="1" fill-rule="nonzero"/></g></g></g></g><g clip-path="url(#466d65324e)"><g clip-path="url(#f16dd4f507)"><g clip-path="url(#f0dd25457d)"><g clip-path="url(#9d49bbe9b0)"><path fill="#eff3f9" d="M 1301.347656 684.113281 C 1287.441406 688.5 1277.003906 670.980469 1265.949219 652.433594 C 1256.769531 637.023438 1245.347656 617.847656 1235.757812 620.871094 C 1226.171875 623.898438 1227.824219 646.15625 1229.144531 664.046875 C 1230.734375 685.578125 1232.242188 705.914062 1218.335938 710.300781 C 1198.691406 716.5 1163.890625 680.382812 1148.085938 637.390625 C 1141.0625 618.277344 1131.6875 601.054688 1120.226562 586.199219 C 1114.078125 578.234375 1110.15625 569.054688 1108.542969 558.917969 C 1104.445312 533.054688 1118.160156 507.160156 1141.898438 495.941406 C 1144.449219 494.738281 1147.085938 493.703125 1149.738281 492.867188 C 1157.0625 490.554688 1164.628906 489.675781 1172.230469 490.261719 C 1179.472656 490.816406 1186.714844 489.964844 1193.753906 487.746094 C 1200.792969 485.523438 1207.210938 482.066406 1212.824219 477.453125 C 1218.714844 472.617188 1225.414062 468.992188 1232.738281 466.679688 C 1235.390625 465.84375 1238.148438 465.179688 1240.921875 464.703125 C 1266.804688 460.265625 1292.894531 473.601562 1304.378906 497.136719 C 1308.882812 506.363281 1310.929688 516.132812 1310.46875 526.183594 C 1309.605469 544.933594 1311.8125 564.414062 1317.027344 584.09375 C 1328.75 628.375 1320.980469 677.917969 1301.335938 684.117188 Z M 1301.347656 684.113281 " fill-opacity="1" fill-rule="nonzero"/></g></g></g></g><g clip-path="url(#d2d4f2330d)"><g clip-path="url(#f518272c04)"><g clip-path="url(#19492495b4)"><g clip-path="url(#8078452b3d)"><path fill="#cfe0f3" d="M 1212.101562 672.421875 C 1214.085938 690.78125 1216.882812 703.765625 1211.917969 710.804688 C 1214.183594 711.007812 1216.359375 710.925781 1218.34375 710.296875 C 1232.25 705.910156 1230.746094 685.574219 1229.15625 664.042969 C 1227.828125 646.152344 1226.179688 623.894531 1235.769531 620.867188 C 1215.015625 627.414062 1209.121094 644.898438 1212.105469 672.421875 Z M 1212.101562 672.421875 " fill-opacity="1" fill-rule="nonzero"/></g></g></g></g><g clip-path="url(#02fbbdef6c)"><g clip-path="url(#a9a4d725a7)"><g clip-path="url(#25111f7815)"><g clip-path="url(#832f41e24b)"><path fill="#cfe0f3" d="M 1304.390625 497.132812 C 1292.902344 473.597656 1266.8125 460.261719 1240.933594 464.699219 C 1238.15625 465.175781 1235.402344 465.839844 1232.75 466.675781 C 1230.511719 467.382812 1228.351562 468.253906 1226.238281 469.203125 C 1247.261719 470.1875 1267.054688 481.714844 1277.800781 500.511719 C 1283.160156 509.894531 1285.984375 520.015625 1286.191406 530.601562 C 1286.570312 550.347656 1290.222656 570.664062 1297.050781 590.976562 C 1308.769531 625.855469 1308.738281 664.664062 1299.097656 684.613281 C 1299.835938 684.5 1300.589844 684.351562 1301.351562 684.113281 C 1320.992188 677.914062 1328.769531 628.371094 1317.042969 584.089844 C 1311.824219 564.40625 1309.621094 544.921875 1310.484375 526.175781 C 1310.945312 516.125 1308.890625 506.359375 1304.394531 497.132812 Z M 1304.390625 497.132812 " fill-opacity="1" fill-rule="nonzero"/></g></g></g></g><g clip-path="url(#e0b9156ca0)"><g clip-path="url(#63abaced2c)"><g clip-path="url(#80ebec82de)"><g clip-path="url(#da49e50518)"><path fill="#ffffff" d="M 1131.59375 559.980469 C 1131.292969 560.074219 1130.984375 560.144531 1130.664062 560.191406 C 1127.683594 560.582031 1124.953125 558.488281 1124.5625 555.515625 C 1123.398438 546.632812 1124.972656 537.734375 1129.121094 529.785156 C 1133.269531 521.832031 1139.671875 515.441406 1147.632812 511.292969 C 1150.316406 509.90625 1153.585938 510.941406 1154.972656 513.597656 C 1156.359375 516.253906 1155.320312 519.53125 1152.65625 520.925781 C 1146.683594 524.03125 1141.882812 528.828125 1138.769531 534.789062 C 1135.660156 540.75 1134.480469 547.425781 1135.355469 554.085938 C 1135.707031 556.738281 1134.074219 559.191406 1131.597656 559.972656 Z M 1131.59375 559.980469 " fill-opacity="1" fill-rule="nonzero"/></g></g></g></g></svg>